<?xml version="1.0" encoding="UTF-8"?>
<svg width="24px" height="24px" viewBox="0 0 24 24" version="1.1" xmlns="http://www.w3.org/2000/svg">
    <g stroke="none" stroke-width="1" fill="none" fill-rule="evenodd">
        <path d="M12,2 C12.5522847,2 13,2.44771525 13,3 L13,5 C13,5.55228475 12.5522847,6 12,6 C11.4477153,6 11,5.55228475 11,5 L11,3 C11,2.44771525 11.4477153,2 12,2 Z" fill="#FFD93D"/>
        <path d="M3,10 L21,10 C21.5522847,10 22,10.4477153 22,11 L22,19 C22,20.6568542 20.6568542,22 19,22 L5,22 C3.34314575,22 2,20.6568542 2,19 L2,11 C2,10.4477153 2.44771525,10 3,10 Z" fill="#FF6B6B"/>
        <path d="M3,7 L21,7 C21.5522847,7 22,7.44771525 22,8 L22,10 L2,10 L2,8 C2,7.44771525 2.44771525,7 3,7 Z" fill="#FFD93D"/>
    </g>
</svg> 